<?xml version="1.0" standalone="no"?>
<!DOCTYPE svg PUBLIC "-//W3C//DTD SVG 20010904//EN"
 "http://www.w3.org/TR/2001/REC-SVG-20010904/DTD/svg10.dtd">
<svg version="1.0" xmlns="http://www.w3.org/2000/svg"
 width="53.000000pt" height="85.000000pt" viewBox="0 0 53.000000 85.000000"
 preserveAspectRatio="xMidYMid meet">

<g transform="translate(0.000000,85.000000) scale(0.100000,-0.100000)"
fill="#000000" stroke="none">
<path d="M182 662 c-192 -185 -191 -184 -117 -228 69 -40 72 -61 37 -212 -17
-71 -34 -141 -38 -156 -4 -17 -2 -26 6 -26 20 0 361 332 358 348 -2 9 -23 30
-48 47 -74 52 -76 60 -35 235 19 83 35 153 35 156 0 21 -50 -20 -198 -164z"/>
</g>
</svg>
